<?xml version="1.0" encoding="utf-8"?>
<svg xmlns="http://www.w3.org/2000/svg" version="1.1" viewBox="0 0 788 256">
	<title>A rough drawn outline represents part of the train’s layout, berths 8 to 12, through the use of rectangles of varying sizes. There is one row of berths on either side of the train, split by a narrow aisle. Each row consists of three berths of roughly the same height and length. The berths in the upper row are labelled (from left to right) as “12,” “10,” and “8,” and the ones in the bottom row are labelled “11,” “9,” and “7.” There is a narrow rectangle at the middle of the two rows of berths, labelled “Aisle,” serving as an access to each individual room. A large asterisk is placed to the right of the numeral 10, highlighting Berth 10 as a point of interest.</title>
	<path d="M 0,-9.5671352e-8 V 256.77735 H 788.91796 V -9.5671352e-8 Z M 9.4531249,9.4531248 H 270.72462 V 107.04101 H 9.4531249 Z m 268.6347651,0 H 556.26172 V 107.04101 H 278.08789 Z m 285.53711,0 H 779.46484 V 107.04101 H 563.625 Z m 92.51564,1.4902352 c -7.16064,-0.0059 -7.15833,-0.0037 21.48435,0.01963 0,0 -14.32365,-0.01374 -21.48435,-0.01963 z m -252.9844,35.835937 c -1.01552,-0.106905 -1.82956,0.145289 -2.97069,0.705078 -8.81474,4.324174 -9.71929,20.939392 -1.38672,25.470702 3.93797,2.141493 7.64264,1.764228 11.0879,-1.134765 12.68595,-10.674528 0.95763,-21.983928 -2.55471,-23.583983 -1.94107,-0.884258 -3.16023,-1.350124 -4.17578,-1.457032 z m -262.07616,0.488281 c -2.49266,-0.240463 -5.14889,0.08742 -7,1.078125 -4.42395,2.367605 -4.06342,9.442937 0.44726,8.800782 1.67231,-0.238057 2.20254,-1.0158 2.23243,-3.25 0.0535,-4.011861 3.05392,-5.85113 5.08203,-3.119142 2.01839,2.71896 0.93721,7.440243 -2.42578,10.601563 -4.4751,4.206696 -7.22461,8.182942 -7.22461,10.451171 0,2.027721 0.46134,2.139269 8.30273,2.027345 10.80783,-0.154247 10.49191,-0.09154 12.85547,-2.455078 2.77514,-2.775121 1.13075,-6.015626 -3.05274,-6.015626 -2.77456,0 -2.89892,0.165855 -1.96093,2.632814 1.31219,3.451446 -8.82567,2.076753 -8.94922,1.125 -0.33941,-2.614552 3.18605,-4.768829 5.13477,-6.691406 5.42849,-5.581671 6.13404,-9.081021 2.59179,-12.851563 -1.20796,-1.285806 -3.54051,-2.093519 -6.0332,-2.333985 z m 528.72655,0.09571 c -2.49529,0.02061 -3.66189,0.512202 -5.14843,1.808592 -1.99066,1.736013 -2.29969,2.722972 -1.80274,5.785156 0.44632,2.750508 0.0965,4.394607 -1.37499,6.460939 -2.87066,4.031456 -2.50712,7.364011 1.12695,10.421874 2.68566,2.259838 4.02823,2.607423 10.13868,2.607423 6.44428,0 7.29343,-0.252428 9.98437,-2.94336 3.28198,-3.281976 3.86594,-7.533134 1.46681,-10.705078 -0.81262,-1.07438 -1.49219,-3.578591 -1.50978,-5.56836 -0.0449,-5.094399 -2.7745,-7.236313 -9.88085,-7.742186 -1.18757,-0.08452 -2.16824,-0.13184 -3.00002,-0.124993 z m -282.82811,0.916005 c -0.48421,0 -1.69448,0.900595 -2.68946,2 -1.49515,1.652107 -1.82674,3.927606 -1.916,13.123047 l -0.10553,11.125 2.51563,-0.291015 2.51171,-0.29297 0.28321,-12.83203 c 0.15511,-7.056889 -0.11535,-12.832032 -0.59961,-12.832032 z M 125.38086,48.45703 c -0.65708,0.07763 -1.5383,0.46146 -2.70313,0.992189 -2.81737,1.283686 -2.79956,1.20589 -1.60156,8.392577 0.46137,2.76741 0.44058,7.499463 -0.043,10.51758 -0.64975,4.055116 -0.55577,5.692105 0.35937,6.273437 3.80433,2.416629 5.11092,-0.937317 5.58985,-14.369142 0.33964,-9.524093 0.36966,-12.039549 -1.60157,-11.806641 z m 277.69921,0.982423 c 0.68226,-0.113261 1.46859,0.03564 2.56447,0.417969 2.41332,0.842047 2.90497,1.718559 3.68162,6.595704 0.65896,4.138056 0.52528,6.780535 -0.50389,9.988281 -1.05686,3.294105 -2.04971,4.529326 -4.05079,5.056641 -1.45674,0.383877 -3.12678,0.396614 -3.71483,0.03321 -3.1285,-1.933535 -3.05814,-17.777813 0.0918,-20.927736 0.6765,-0.676499 1.24938,-1.050817 1.93163,-1.164061 z m 270.66602,0.144529 c 1.31418,0.09586 1.86525,1.442206 1.86525,4.289063 0,3.000405 -0.33044,3.466802 -2.45899,3.466797 -1.35107,0 -2.74982,-0.479517 -3.11134,-1.064454 -1.0158,-1.643581 0.33369,-5.686206 2.12892,-6.375001 0.61625,-0.236487 1.13814,-0.348369 1.57616,-0.316405 z M 437.61134,50.57617 c -0.55347,-0.120649 -0.88879,1.096013 -0.75197,2.707032 0.34273,4.036553 -1.43301,4.744858 -3.93164,1.568359 -2.83308,-3.601675 -3.40891,-2.586866 -0.92383,1.625 l 2.01757,3.421873 -3.99411,-0.378905 c -3.18973,-0.304201 -3.98634,-0.04722 -3.98634,1.279296 0,0.912623 0.56787,1.585937 1.25976,1.496093 3.66951,-0.476508 5.69398,0.14497 5.14257,1.582032 -0.31871,0.830223 -1.16126,1.509765 -1.87303,1.509765 -1.38149,0 -2.92926,2.943826 -2.02344,3.849612 0.29811,0.29806 2.06902,-0.937011 3.93554,-2.746096 3.64329,-3.531222 4.90387,-3.068192 4.59179,1.687502 -0.0992,1.509554 -0.13081,3.112765 -0.0722,3.560545 0.28098,2.145004 2.11913,-0.79435 2.11913,-3.38867 0,-2.914255 1.30048,-3.924384 2.51757,-1.955078 0.34204,0.553484 1.34518,1.005858 2.22852,1.005858 1.44889,0 1.44314,-0.179648 -0.0587,-1.839844 -2.50397,-2.766845 -2.02202,-4.004867 1.49609,-3.839843 1.74366,0.0818 3.36147,-0.419905 3.60547,-1.113282 0.30088,-0.854657 -0.71013,-1.259765 -3.16016,-1.259765 -4.19313,0 -4.39825,-0.532692 -1.41797,-3.705078 2.6851,-2.858125 1.03551,-3.069768 -2.46483,-0.316406 -3.35227,2.637156 -3.49422,2.579278 -3.35939,-1.261719 0.0631,-1.798814 -0.33914,-3.367623 -0.89257,-3.488281 z m 234.74023,9.265624 c 4.99705,-0.683018 9.09921,5.138149 5.8867,10.041017 -1.24514,1.90032 -2.53927,2.55078 -5.09569,2.55078 -4.12434,0 -6.59121,-2.206821 -6.57032,-5.863281 0.0172,-3.236021 0.8013,-4.545543 3.60353,-6.019531 0.73167,-0.384849 1.46187,-0.611409 2.17578,-0.708985 z M 9.4531249,114.4043 h 261.2714951 7.36327 278.17383 7.36328 215.83984 v 27.96875 H 563.625 556.26172 278.08789 270.72462 9.4531249 Z m 372.6699251,3.82226 c -1.58129,0.008 -3.34611,0.3512 -3.91993,0.75781 -1.29705,0.91923 -1.60321,18.63606 -0.33593,19.42774 1.32843,0.82981 6.91212,-0.1341 6.91212,-1.19336 0,-0.49066 -0.44522,-0.89258 -0.99221,-0.89258 -1.07401,0 -0.64131,-13.31492 0.53126,-16.35351 0.55045,-1.42655 0.13375,-1.75855 -2.19531,-1.7461 z m -28.4004,0.63281 c -4.42638,0 -7.87883,3.01127 -10.78515,6.18946 -3.48723,3.81341 -8.38447,11.35717 -8.47461,12.98047 -0.01,0.17088 1.06257,0.31054 2.35743,0.31054 1.54897,0 2.75163,-0.8804 3.52343,-2.57422 1.15031,-2.52468 2.50758,-2.0247 9.47266,-2.07031 4.57172,-0.0299 9.03734,0.52925 9.9414,0.56055 0.90403,0.0312 1.88286,0.96137 2.17187,2.0664 0.42684,1.63231 1.2969,1.98079 4.64453,1.84962 2.26627,-0.0888 4.1172,-0.53921 4.1172,-1.00196 0,-0.46275 -0.35448,-0.84375 -0.79101,-0.84375 -0.43656,0 -2.30546,-2.49101 -4.15041,-5.53515 -3.79439,-5.21171 -5.01749,-11.66179 -12.02734,-11.93165 z m 74.6797,0.35938 0.078,6.79297 c 0.0422,3.736 -0.27463,8.05475 -0.70507,9.5957 l -0.78127,2.80078 10.84181,-0.28906 c 10.38136,-0.27367 10.86212,-0.37764 11.16992,-2.54492 0.37093,-2.6115 -0.52748,-2.80845 -3.28517,-0.72266 -1.07435,0.81262 -3.90224,1.47461 -6.28711,1.47461 h -4.33398 l -0.16786,-4.27539 c -0.0908,-2.3523 -0.0675,-6.20239 0.0528,-8.55469 0.21548,-4.23081 0.18039,-4.27734 -3.18359,-4.27734 z m -20.00196,0.0293 c -4.01299,-0.071 -8.41863,0.38893 -10.41992,1.42383 -3.03511,1.56954 -4.75882,4.41043 -3.42383,5.65625 3.24934,3.03229 9.33164,4.9668 15.61718,4.9668 6.92113,0 8.41194,1.01578 5.60352,3.82422 -2.12439,2.12433 -12.34078,1.48517 -21.68946,-1.35742 -1.24533,-0.37866 -2.26366,-0.2916 -2.26366,0.19336 0,1.87884 4.6774,3.64538 11.49609,4.3418 3.91612,0.39994 8.70732,0.54631 10.64452,0.32617 6.30073,-0.71597 9.38908,-7.36538 4.77932,-10.29101 -2.31665,-1.47029 -3.31212,-1.71131 -10.31446,-2.45899 -2.95815,-0.31585 -9.55858,-1.23389 -9.55858,-3.13086 0,-1.80089 8.46516,-2.11613 14.02538,-0.52148 3.89313,1.11653 4.38086,0.95065 3.54687,-1.22266 -0.41351,-1.07757 -4.03,-1.67909 -8.04297,-1.75 z m 55.76171,0.53711 c -5.23737,0.1058 -10.33134,0.68322 -10.05664,1.6211 0.21548,0.73539 0.37861,4.84528 0.36329,9.13476 l -0.0272,7.79883 h 11.85742 c 10.0694,0 11.94937,-0.24799 12.48827,-1.65234 0.87016,-2.26767 0.13326,-2.73921 -2.27733,-1.44922 -1.11802,0.59832 -5.22986,1.08789 -9.14064,1.08789 h -7.11326 v -4.5918 c 0,-3.77045 0.3175,-4.55726 1.76366,-4.41015 4.42878,0.4505 9.3086,-0.15565 9.3086,-1.1543 0,-0.70362 -1.99811,-0.97256 -5.54103,-0.75195 -4.73335,0.29473 -5.53227,0.0858 -5.53123,-1.41993 10e-4,-1.52227 1.03434,-1.75781 7.63085,-1.75781 5.6596,0 7.52243,-0.32883 7.20898,-1.26172 -0.31492,-0.93707 -5.69623,-1.29915 -10.9336,-1.19336 z m -111.90623,2.66016 c 0.90445,0.15211 1.75184,1.16632 3.09178,3.13477 3.25072,4.77485 2.9194,5.71271 -2.01367,5.72851 -2.35231,0.008 -5.50697,0.26259 -6.87305,0.11915 -2.11231,-0.22183 -1.89884,-0.39758 -1.46678,-1.93554 0.49008,-2.17389 1.66,-3.5439 3.10155,-5.19727 1.57346,-1.47819 3.25572,-2.00172 4.16017,-1.84961 z M 9.4531249,149.73633 H 270.72462 v 97.58789 H 9.4531249 Z m 268.6347651,0 h 278.17383 v 97.58789 H 278.08789 Z m 285.53711,0 h 215.83984 v 97.58789 H 563.625 Z m 110.3086,35.33203 v 0.004 c -4.76109,-0.0831 -9.5877,0.0698 -10.34377,0.53711 -0.97714,0.60389 -1.56367,4.56445 -0.67576,4.56445 0.21352,0 1.58728,-0.61871 3.04881,-1.37696 3.53813,-1.83562 12.66799,-2.05973 12.66799,-0.31054 0,0.7121 -1.63929,3.078 -3.64258,5.26172 -4.60347,5.01802 -9.44336,12.00277 -9.44336,13.63281 0,0.68692 0.75192,2.07961 1.66795,3.09179 2.03102,2.24425 2.32173,2.25511 5.22071,0.22461 1.40537,-0.98436 2.07255,-2.21592 1.71094,-3.1582 -0.32591,-0.8497 0.35842,-3.5057 1.51953,-5.9043 1.90465,-3.93447 10.8478,-13.03891 8.21679,-15.66992 -0.489,-0.48902 -5.18602,-0.81332 -9.94725,-0.89648 z m -261.29492,0.0723 c -6.36601,0 -10.9941,5.53683 -9.24219,11.05664 1.00043,3.1521 6.16766,5.35104 11.24023,4.77929 3.82441,-0.43107 4.36132,-0.25155 4.36132,1.47266 0,1.96273 -5.08264,7.85156 -6.77734,7.85156 -0.49192,0 -1.90323,-1.35908 -3.13085,-3.01953 -2.42861,-3.28485 -4.63862,-3.88872 -5.5508,-1.51172 -0.91174,2.37601 0.24645,4.22218 3.70705,5.90235 3.41245,1.65684 6.73076,1.2908 10.51561,-1.16016 6.50926,-4.21515 8.04873,-15.58984 5.24414,-20.52539 -0.1686,-0.29653 -3.18222,-4.8457 -10.36717,-4.8457 z m -269.15235,0.291 c -0.28174,0.002 -0.59598,0.0633 -0.92188,0.16797 -1.95537,0.63027 -4.4144,2.91451 -3.91015,4.22851 1.18476,3.0875 1.68657,17.40434 0.67578,19.29297 -0.56535,1.05639 -0.73602,2.21318 -0.375,2.57422 0.36105,0.36104 1.13847,0.42262 1.72656,0.13476 0.58806,-0.28791 1.86344,-0.80095 2.83203,-1.14258 1.5429,-0.54422 1.75977,-2.09449 1.75977,-12.51953 0,-7.18145 -0.41675,-12.16087 -1.05078,-12.55273 -0.20567,-0.12708 -0.45459,-0.18559 -0.73633,-0.1836 z m -13.64844,0.42774 c -0.57506,-0.0316 -1.29695,0.3445 -2.17578,1.09179 -1.80137,1.53178 -2.01367,2.95409 -2.01367,13.53711 v 11.82422 h 3.21289 c 3.44746,0 5.38873,-1.74711 3.3457,-3.00977 -0.91995,-0.56856 -1.10137,-3.41682 -0.69531,-10.85156 0.47519,-8.69967 0.0512,-12.49696 -1.67383,-12.59179 z m 283.62501,2.30078 c 2.08705,0 3.53049,0.58714 3.916,1.59179 1.00669,2.6234 0.69329,6.98249 -0.59571,8.27149 -3.11097,3.11098 -7.85154,0.28493 -7.85154,-4.68164 0,-3.88025 1.13912,-5.18164 4.53125,-5.18164 z"/>
</svg>
